<svg width="123" height="32" viewBox="0 0 123 32" fill="none" xmlns="http://www.w3.org/2000/svg">
<g clip-path="url(#clip0_2001_179)">
<mask id="mask0_2001_179" style="mask-type:luminance" maskUnits="userSpaceOnUse" x="0" y="0" width="123" height="32">
<path d="M122.197 0.000488281H0.802734V31.544H122.197V0.000488281Z" fill="white"/>
</mask>
<g mask="url(#mask0_2001_179)">
<path d="M47.2058 0.742188L36.7327 28.6963H42.361L44.5345 22.8579H55.6541L57.8173 28.6963H63.4029L52.9686 0.742188H47.2058ZM46.4416 17.7275L50.106 7.89087L53.7496 17.7275H46.4416Z" fill="white"/>
<path d="M112.236 8.70447C110.267 8.70447 108.342 9.30097 106.704 10.4186C105.067 11.5362 103.791 13.1247 103.038 14.9831C102.284 16.8416 102.087 18.8866 102.471 20.8596C102.855 22.8325 103.804 24.6449 105.196 26.0672C106.588 27.4897 108.362 28.4584 110.293 28.8509C112.225 29.2432 114.227 29.0419 116.046 28.272C117.865 27.5022 119.42 26.1986 120.514 24.526C121.608 22.8535 122.192 20.887 122.192 18.8754C122.192 16.1779 121.143 13.5909 119.276 11.6835C117.409 9.77603 114.876 8.70447 112.236 8.70447ZM112.236 23.8314C111.277 23.8314 110.339 23.5408 109.542 22.9964C108.744 22.4519 108.122 21.6781 107.755 20.7727C107.388 19.8675 107.292 18.8712 107.48 17.9101C107.666 16.949 108.128 16.0661 108.806 15.3733C109.485 14.6803 110.349 14.2084 111.29 14.0172C112.231 13.826 113.206 13.9242 114.092 14.2992C114.978 14.6742 115.736 15.3093 116.269 16.124C116.801 16.9388 117.085 17.8967 117.085 18.8767C117.087 19.5276 116.962 20.1724 116.719 20.774C116.475 21.3756 116.119 21.9222 115.668 22.3825C115.217 22.8428 114.682 23.2077 114.093 23.4564C113.505 23.705 112.873 23.8324 112.236 23.8314Z" fill="white"/>
<path d="M70.1094 21.4869L65.5632 9.05725H60.1948L67.5118 28.6963H72.8376L80.0239 9.05725H74.6555L70.1094 21.4869Z" fill="white"/>
<path d="M96.9091 3.83838H91.8006V9.05724H88.8137V13.7464H91.8006V22.1064C91.8006 26.8391 94.3553 28.8733 97.9484 28.8733C99.1672 28.8913 100.376 28.6501 101.499 28.1653V23.3004C100.888 23.5305 100.244 23.6525 99.593 23.661C98.0418 23.661 96.9091 23.0415 96.9091 20.9188V13.7464H101.499V9.05724H96.9091V3.83838Z" fill="white"/>
<path d="M84.2237 7.64252C86.2802 7.64252 87.9476 5.93934 87.9476 3.83835C87.9476 1.73736 86.2802 0.0341797 84.2237 0.0341797C82.1671 0.0341797 80.4998 1.73736 80.4998 3.83835C80.4998 5.93934 82.1671 7.64252 84.2237 7.64252Z" fill="white"/>
<path d="M86.7782 9.05725H81.6699V28.6963H86.7782V9.05725Z" fill="white"/>
<path d="M10.7942 31.4834C16.2941 31.4834 20.7527 26.9285 20.7527 21.3099C20.7527 15.6911 16.2941 11.1364 10.7942 11.1364C5.29426 11.1364 0.835693 15.6911 0.835693 21.3099C0.835693 26.9285 5.29426 31.4834 10.7942 31.4834Z" fill="#04E061"/>
<path d="M28.0696 30.1994C31.393 30.1994 34.087 27.4471 34.087 24.0519C34.087 20.6568 31.393 17.9045 28.0696 17.9045C24.7462 17.9045 22.052 20.6568 22.052 24.0519C22.052 27.4471 24.7462 30.1994 28.0696 30.1994Z" fill="#FF4053"/>
<path d="M12.6986 9.81013C14.7552 9.81013 16.4224 8.10694 16.4224 6.00596C16.4224 3.90497 14.7552 2.20178 12.6986 2.20178C10.642 2.20178 8.97485 3.90497 8.97485 6.00596C8.97485 8.10694 10.642 9.81013 12.6986 9.81013Z" fill="#965EEB"/>
<path d="M25.7319 16.5771C30.2035 16.5771 33.8285 12.8738 33.8285 8.30564C33.8285 3.73743 30.2035 0.0341797 25.7319 0.0341797C21.2602 0.0341797 17.6353 3.73743 17.6353 8.30564C17.6353 12.8738 21.2602 16.5771 25.7319 16.5771Z" fill="#00AAFF"/>
</g>
</g>
<defs>
<clipPath id="clip0_2001_179">
<rect width="121.395" height="31.5435" fill="white" transform="translate(0.802734 0.000488281)"/>
</clipPath>
</defs>
</svg>
