<svg width="68" height="67" viewBox="0 0 68 67" fill="none" xmlns="http://www.w3.org/2000/svg">
<path d="M0 53.3015H41.0833V67L49.5833 61.9504L58.0833 67V53.3015H68V0H0V53.3015ZM55.6254 43.783C55.4979 43.9106 55.3619 44.0285 55.2273 44.1477C55.1508 44.215 55.08 44.2865 55.0007 44.3511C54.9128 44.424 54.8193 44.4857 54.7287 44.5545C53.5344 45.4592 52.0951 46.0609 50.524 46.2334C50.4985 46.2363 50.473 46.2419 50.4461 46.2447C50.1613 46.2727 49.8723 46.2882 49.5805 46.2882C49.2887 46.2882 48.9997 46.2727 48.7149 46.2447C48.6894 46.2419 48.6639 46.2363 48.637 46.2334C47.0659 46.0609 45.628 45.4592 44.4323 44.5545C44.3417 44.4857 44.2482 44.4226 44.1603 44.3511C44.0824 44.2865 44.0102 44.215 43.9337 44.1477C43.7991 44.0285 43.6645 43.9106 43.5356 43.783C42.0183 42.2625 41.0777 40.1753 41.0777 37.8721C41.0777 33.2307 44.8899 29.4561 49.5777 29.4561C54.2654 29.4561 58.0777 33.2307 58.0777 37.8721C58.0833 40.1739 57.1441 42.2611 55.6254 43.783ZM55.25 62.0458L49.5833 58.6794L43.9167 62.0458V47.5926C43.9648 47.6207 44.0187 47.6389 44.0682 47.6656C44.4437 47.8732 44.8304 48.0639 45.2299 48.2295C45.2469 48.2365 45.2653 48.2421 45.2838 48.2491C46.6112 48.7905 48.0618 49.0935 49.5847 49.0935C51.1077 49.0935 52.5583 48.7905 53.8857 48.2491C53.9027 48.2421 53.9212 48.2365 53.9396 48.2295C54.3391 48.0639 54.7258 47.8746 55.1012 47.6656C55.1508 47.6389 55.2047 47.6207 55.2528 47.5926V62.0458H55.25ZM2.83333 2.80534H65.1667V50.4962H58.0833V45.2698C59.8414 43.292 60.9167 40.7069 60.9167 37.8721C60.9167 31.6849 55.8322 26.6508 49.5833 26.6508C43.3344 26.6508 38.25 31.6849 38.25 37.8721C38.25 40.7069 39.3253 43.292 41.0833 45.2698V50.4962H2.83333V2.80534Z" fill="black"/>
<path d="M52.4167 8.41603H15.5833V11.2214H52.4167V8.41603Z" fill="black"/>
<path d="M45.3333 16.8321H22.6667V19.6374H45.3333V16.8321Z" fill="black"/>
<path d="M24.0833 42.0801H8.5V44.8855H24.0833V42.0801Z" fill="black"/>
</svg>
