<svg width="24" height="24" viewBox="0 0 24 24" fill="none" xmlns="http://www.w3.org/2000/svg">
<mask id="mask0_96_428" style="mask-type:alpha" maskUnits="userSpaceOnUse" x="0" y="0" width="24" height="24">
<rect width="24" height="24" transform="matrix(1 0 0 -1 0 24)" fill="#D9D9D9"/>
</mask>
<g mask="url(#mask0_96_428)">
<path d="M11.9998 9.32299C11.8793 9.32299 11.7671 9.34224 11.6633 9.38074C11.5594 9.41924 11.4607 9.48524 11.367 9.57874L6.87276 14.073C6.73442 14.2115 6.66359 14.3856 6.66026 14.5952C6.65709 14.8047 6.72792 14.982 6.87276 15.127C7.01776 15.2718 7.19342 15.3442 7.39976 15.3442C7.60609 15.3442 7.78176 15.2718 7.92676 15.127L11.9998 11.0537L16.0728 15.127C16.2113 15.2653 16.3853 15.3362 16.595 15.3395C16.8045 15.3427 16.9818 15.2718 17.1268 15.127C17.2716 14.982 17.344 14.8063 17.344 14.6C17.344 14.3937 17.2716 14.218 17.1268 14.073L12.6325 9.57874C12.5388 9.48524 12.4401 9.41924 12.3363 9.38074C12.2324 9.34224 12.1203 9.32299 11.9998 9.32299Z" fill="black"/>
</g>
</svg>
