<svg width="123" height="28" viewBox="0 0 123 28" fill="none" xmlns="http://www.w3.org/2000/svg">
<path fill-rule="evenodd" clip-rule="evenodd" d="M15.4675 0.356791C12.7402 0.0568256 9.99081 0.646216 7.59734 2.04395C5.20386 3.44168 3.28375 5.57914 2.10092 8.16253C0.918096 10.7459 0.530618 13.6484 0.99175 16.4711C1.45288 19.2937 2.73999 21.898 4.67615 23.9259C6.61231 25.9537 9.10249 27.3057 11.8044 27.7959C14.5063 28.2861 17.2873 27.8905 19.7651 26.6635C22.243 25.4364 24.296 23.4382 25.6421 20.9434C26.9881 18.4487 27.5611 15.5798 27.2822 12.7312C26.9754 9.56484 25.633 6.60556 23.481 4.35168C21.3291 2.09779 18.499 0.686978 15.4675 0.356791ZM15.0373 21.4753C13.5705 21.6807 12.0789 21.4011 10.7721 20.6757C9.46535 19.9503 8.40912 18.8156 7.75188 17.4311C7.09464 16.0465 6.86943 14.4817 7.1079 12.9567C7.34636 11.4316 8.03652 10.0228 9.08138 8.92845C10.1262 7.83406 11.4733 7.10904 12.9331 6.85528C14.393 6.60151 15.8923 6.83177 17.2204 7.51368C18.5485 8.19559 19.6385 9.29488 20.3373 10.657C21.0361 12.0192 21.3086 13.5758 21.1164 15.108C20.9147 16.7196 20.2098 18.2168 19.1109 19.3679C18.0119 20.5189 16.5802 21.2596 15.0373 21.4753ZM34.382 0.905108C33.9216 0.906259 33.4673 1.01456 33.052 1.22214C32.6368 1.42972 32.2711 1.73135 31.9815 2.10509C31.6919 2.47882 31.4858 2.91526 31.3782 3.38264C31.2705 3.85002 31.2639 4.33658 31.359 4.80693C31.6503 6.3307 33.0134 7.37185 34.4983 7.37185H43.1157L29.7052 25.9021C29.606 26.0389 29.5452 26.2018 29.5298 26.3727C29.5143 26.5435 29.5447 26.7154 29.6176 26.8692C29.6905 27.023 29.8029 27.1525 29.9424 27.2433C30.0818 27.3341 30.2427 27.3825 30.407 27.3832H51.4427C52.9266 27.3832 54.2907 26.3423 54.582 24.8183C54.6771 24.348 54.6707 23.8615 54.5631 23.3942C54.4555 22.9269 54.2495 22.4904 53.9601 22.1167C53.6706 21.7429 53.3051 21.4412 52.89 21.2335C52.4748 21.0258 52.0206 20.9173 51.5603 20.9159H41.0607L54.4609 2.40009C54.5611 2.26196 54.6224 2.09743 54.638 1.92495C54.6536 1.75247 54.6228 1.57886 54.5492 1.42361C54.4755 1.26836 54.3619 1.13761 54.2211 1.04602C54.0802 0.954437 53.9177 0.90564 53.7518 0.905108H34.382ZM118.439 0.9797C117.743 1.15261 117.124 1.56851 116.685 2.15863C116.245 2.74876 116.012 3.47776 116.023 4.22511V14.992L99.3142 1.10847C99.1832 0.999866 99.0254 0.932092 98.8591 0.912943C98.6929 0.893794 98.5248 0.924049 98.3742 1.00023C98.2237 1.0764 98.0968 1.19541 98.0081 1.34355C97.9195 1.4917 97.8727 1.66296 97.8731 1.83764V24.069C97.8618 24.8163 98.0951 25.5454 98.5344 26.1355C98.9737 26.7256 99.5928 27.1415 100.289 27.3144C100.742 27.4183 101.21 27.4148 101.661 27.3043C102.112 27.1938 102.533 26.979 102.894 26.6758C103.255 26.3727 103.546 25.9888 103.745 25.5525C103.945 25.1163 104.048 24.6388 104.047 24.1553V13.2952L120.757 27.1791C120.888 27.2876 121.045 27.3553 121.212 27.3745C121.378 27.3936 121.546 27.3633 121.696 27.2872C121.847 27.2111 121.974 27.0921 122.062 26.944C122.151 26.7959 122.198 26.6248 122.197 26.4502V4.13769C122.198 3.65432 122.094 3.17699 121.895 2.7409C121.695 2.30482 121.404 1.92109 121.043 1.61802C120.683 1.31495 120.262 1.10026 119.811 0.989788C119.36 0.879312 118.891 0.875865 118.439 0.9797ZM74.9337 6.75287C82.0011 6.75287 87.2818 10.6526 87.2818 14.1409C87.2818 17.6292 82.0011 21.5289 74.9337 21.5289C67.8662 21.5289 62.5855 17.6292 62.5855 14.1409C62.5855 10.6526 67.8662 6.75287 74.9337 6.75287ZM74.9337 0.286386C64.7038 0.286386 56.4111 6.48931 56.4111 14.1409C56.4111 21.7925 64.7038 27.9954 74.9337 27.9954C85.1635 27.9954 93.4559 21.7925 93.4559 14.1409C93.4559 6.48931 85.1632 0.286386 74.9337 0.286386Z" fill="#0069FF"/>
</svg>
