<svg width="742" height="219" viewBox="0 0 742 219" fill="none" xmlns="http://www.w3.org/2000/svg">
<path fill-rule="evenodd" clip-rule="evenodd" d="M371 219C431.199 219 480 170.199 480 110C480 49.8009 431.199 1 371 1C310.801 1 262 49.8009 262 110C262 170.199 310.801 219 371 219ZM350.616 129.62H365.55C368.119 129.62 369.404 129.62 370.202 130.418C371 131.216 371 132.501 371 135.07V183.356C371 193.063 371 197.918 373.139 198.389C375.278 198.86 377.317 194.455 381.395 185.645L411.168 121.338C417.617 107.407 420.841 100.442 417.627 95.4103C414.413 90.38 406.737 90.38 391.384 90.38H376.45C373.881 90.38 372.596 90.38 371.798 89.5821C371 88.7842 371 87.4991 371 84.93V36.6444C371 26.9361 371 22.082 368.861 21.6109C366.722 21.1399 364.683 25.5448 360.605 34.3547L330.833 98.6607C324.383 112.593 321.158 119.558 324.373 124.59C327.588 129.62 335.264 129.62 350.616 129.62Z" fill="black"/>
<path d="M231.357 169.08H204.837V219H159.597V169.08H6.71656V144.432L148.677 0.599985H204.837V147.24H231.357V169.08ZM159.597 147.24V41.16H156.477L51.9566 147.24H159.597Z" fill="black"/>
<path d="M735.357 169.08H708.837V219H663.597V169.08H510.717V144.432L652.677 0.599985H708.837V147.24H735.357V169.08ZM663.597 147.24V41.16H660.477L555.957 147.24H663.597Z" fill="black"/>
</svg>
