<svg width="230" height="20" viewBox="0 0 230 20" fill="none" xmlns="http://www.w3.org/2000/svg">
<path d="M6.72 14.845C7.49 14.845 8.197 14.74 8.841 14.53C9.485 14.306 10.045 13.977 10.521 13.543C11.011 13.095 11.403 12.528 11.697 11.842C11.991 11.156 12.173 10.337 12.243 9.385H4.326V7.81H12.243C12.173 6.886 11.991 6.088 11.697 5.416C11.403 4.744 11.018 4.191 10.542 3.757C10.08 3.309 9.541 2.98 8.925 2.77C8.309 2.56 7.644 2.455 6.93 2.455C5.978 2.455 5.061 2.623 4.179 2.959C3.311 3.281 2.478 3.813 1.68 4.555L0.63 3.295C1.428 2.553 2.394 1.965 3.528 1.531C4.662 1.097 5.866 0.879999 7.14 0.879999C8.4 0.879999 9.541 1.048 10.563 1.384C11.599 1.72 12.481 2.217 13.209 2.875C13.951 3.533 14.525 4.345 14.931 5.311C15.337 6.277 15.54 7.39 15.54 8.65C15.54 9.91 15.337 11.023 14.931 11.989C14.525 12.955 13.944 13.767 13.188 14.425C12.446 15.083 11.543 15.58 10.479 15.916C9.429 16.252 8.246 16.42 6.93 16.42C5.656 16.42 4.452 16.203 3.318 15.769C2.184 15.335 1.218 14.747 0.42 14.005L1.47 12.745C2.268 13.487 3.101 14.026 3.969 14.362C4.851 14.684 5.768 14.845 6.72 14.845ZM16.4957 14.845H17.1257C17.3077 14.845 17.4757 14.81 17.6297 14.74C17.7837 14.656 17.9167 14.523 18.0287 14.341C18.1547 14.159 18.2527 13.914 18.3227 13.606C18.4067 13.298 18.4627 12.906 18.4907 12.43L18.9107 5.08H28.9907V16H26.0507V6.55H21.6407L21.3257 12.43C21.2557 13.844 20.9197 14.845 20.3177 15.433C19.7297 16.021 18.9107 16.315 17.8607 16.315C17.5247 16.315 17.2167 16.28 16.9367 16.21C16.7827 16.182 16.6357 16.147 16.4957 16.105V14.845ZM38.2241 14.95C38.9101 14.95 39.5471 14.831 40.1351 14.593C40.7371 14.355 41.3251 14.019 41.8991 13.585L42.7391 14.845C42.4731 15.083 42.1581 15.3 41.7941 15.496C41.4441 15.692 41.0591 15.86 40.6391 16C40.2331 16.126 39.8061 16.224 39.3581 16.294C38.9101 16.378 38.4621 16.42 38.0141 16.42C37.0201 16.42 36.1101 16.287 35.2841 16.021C34.4721 15.769 33.7791 15.398 33.2051 14.908C32.6311 14.404 32.1831 13.788 31.8611 13.06C31.5531 12.332 31.3991 11.492 31.3991 10.54C31.3991 9.602 31.5461 8.769 31.8401 8.041C32.1481 7.299 32.5681 6.683 33.1001 6.193C33.6461 5.689 34.2901 5.311 35.0321 5.059C35.7741 4.793 36.5931 4.66 37.4891 4.66C38.3291 4.66 39.1201 4.786 39.8621 5.038C40.6041 5.29 41.2481 5.661 41.7941 6.151C42.3401 6.627 42.7741 7.208 43.0961 7.894C43.4181 8.58 43.5791 9.357 43.5791 10.225V11.695H34.6121C34.7801 12.857 35.1791 13.69 35.8091 14.194C36.4531 14.698 37.2581 14.95 38.2241 14.95ZM37.4891 6.025C37.0831 6.025 36.7051 6.102 36.3551 6.256C36.0051 6.41 35.6971 6.655 35.4311 6.991C35.1791 7.327 34.9691 7.761 34.8011 8.293C34.6471 8.825 34.5631 9.469 34.5491 10.225H40.4291C40.4291 9.497 40.3451 8.867 40.1771 8.335C40.0091 7.803 39.7851 7.369 39.5051 7.033C39.2391 6.683 38.9241 6.431 38.5601 6.277C38.2101 6.109 37.8531 6.025 37.4891 6.025ZM51.1375 11.275H48.9325V16H45.9925V5.08H48.9325V9.805H51.1375L54.3925 5.08H57.5425L53.8675 10.435L57.7525 16H54.3925L51.1375 11.275ZM70.1507 6.55H65.7407V16H62.8007V6.55H58.3907V5.08H70.1507V6.55ZM74.7723 6.55V14.53H77.3973C77.8733 14.53 78.3073 14.46 78.6993 14.32C79.1053 14.166 79.4483 13.928 79.7283 13.606C80.0223 13.284 80.2463 12.871 80.4003 12.367C80.5683 11.863 80.6523 11.254 80.6523 10.54C80.6523 9.826 80.5683 9.217 80.4003 8.713C80.2463 8.209 80.0223 7.796 79.7283 7.474C79.4483 7.152 79.1053 6.921 78.6993 6.781C78.3073 6.627 77.8733 6.55 77.3973 6.55H74.7723ZM77.3973 5.08C78.3633 5.08 79.2383 5.206 80.0223 5.458C80.8203 5.71 81.4993 6.074 82.0593 6.55C82.6193 7.026 83.0463 7.6 83.3403 8.272C83.6483 8.944 83.8023 9.7 83.8023 10.54C83.8023 11.38 83.6483 12.136 83.3403 12.808C83.0463 13.48 82.6193 14.054 82.0593 14.53C81.4993 15.006 80.8203 15.37 80.0223 15.622C79.2383 15.874 78.3633 16 77.3973 16H74.7723V19.78H71.8323V5.08H77.3973ZM92.0883 15.055C92.5363 15.055 92.9563 14.971 93.3483 14.803C93.7403 14.635 94.0833 14.376 94.3773 14.026C94.6713 13.662 94.9023 13.193 95.0703 12.619C95.2523 12.045 95.3433 11.352 95.3433 10.54C95.3433 9.728 95.2523 9.035 95.0703 8.461C94.9023 7.887 94.6713 7.425 94.3773 7.075C94.0833 6.711 93.7403 6.445 93.3483 6.277C92.9563 6.109 92.5363 6.025 92.0883 6.025C91.6403 6.025 91.2203 6.109 90.8283 6.277C90.4363 6.445 90.0933 6.711 89.7993 7.075C89.5053 7.425 89.2673 7.887 89.0853 8.461C88.9173 9.035 88.8333 9.728 88.8333 10.54C88.8333 11.352 88.9173 12.045 89.0853 12.619C89.2673 13.193 89.5053 13.662 89.7993 14.026C90.0933 14.376 90.4363 14.635 90.8283 14.803C91.2203 14.971 91.6403 15.055 92.0883 15.055ZM92.0883 4.66C93.0263 4.66 93.8873 4.793 94.6713 5.059C95.4693 5.311 96.1483 5.689 96.7083 6.193C97.2683 6.683 97.7023 7.299 98.0103 8.041C98.3323 8.769 98.4933 9.602 98.4933 10.54C98.4933 11.492 98.3323 12.332 98.0103 13.06C97.7023 13.788 97.2683 14.404 96.7083 14.908C96.1483 15.398 95.4693 15.769 94.6713 16.021C93.8873 16.287 93.0263 16.42 92.0883 16.42C91.1363 16.42 90.2683 16.287 89.4843 16.021C88.7003 15.769 88.0283 15.398 87.4683 14.908C86.9083 14.404 86.4673 13.788 86.1453 13.06C85.8373 12.332 85.6833 11.492 85.6833 10.54C85.6833 9.602 85.8373 8.769 86.1453 8.041C86.4673 7.299 86.9083 6.683 87.4683 6.193C88.0283 5.689 88.7003 5.311 89.4843 5.059C90.2683 4.793 91.1363 4.66 92.0883 4.66ZM100.912 16V5.08H103.852V14.53H107.632V5.08H110.572V14.53H114.352V5.08H117.292V14.53H119.077V19.15H116.662L116.242 16H100.912ZM133.037 5.08V16H130.097V7.81H129.887L125.057 16H121.277V5.08H124.217V13.27H124.427L129.257 5.08H133.037ZM146.481 6.55H142.071V16H139.131V6.55H134.721V5.08H146.481V6.55ZM197.117 14.635C197.117 15.055 196.97 15.426 196.676 15.748C196.396 16.056 196.018 16.21 195.542 16.21C195.066 16.21 194.681 16.056 194.387 15.748C194.107 15.426 193.967 15.055 193.967 14.635C193.967 14.215 194.107 13.851 194.387 13.543C194.681 13.221 195.066 13.06 195.542 13.06C196.004 13.06 196.382 13.221 196.676 13.543C196.97 13.851 197.117 14.215 197.117 14.635ZM202.577 6.55V14.53H205.202C205.678 14.53 206.112 14.46 206.504 14.32C206.91 14.166 207.253 13.928 207.533 13.606C207.827 13.284 208.051 12.871 208.205 12.367C208.373 11.863 208.457 11.254 208.457 10.54C208.457 9.826 208.373 9.217 208.205 8.713C208.051 8.209 207.827 7.796 207.533 7.474C207.253 7.152 206.91 6.921 206.504 6.781C206.112 6.627 205.678 6.55 205.202 6.55H202.577ZM205.202 5.08C206.168 5.08 207.043 5.206 207.827 5.458C208.625 5.71 209.304 6.074 209.864 6.55C210.424 7.026 210.851 7.6 211.145 8.272C211.453 8.944 211.607 9.7 211.607 10.54C211.607 11.38 211.453 12.136 211.145 12.808C210.851 13.48 210.424 14.054 209.864 14.53C209.304 15.006 208.625 15.37 207.827 15.622C207.043 15.874 206.168 16 205.202 16H202.577V19.78H199.637V5.08H205.202ZM219.998 19.78V16H219.683C218.759 16 217.919 15.874 217.163 15.622C216.407 15.37 215.756 15.006 215.21 14.53C214.664 14.054 214.237 13.48 213.929 12.808C213.635 12.136 213.488 11.38 213.488 10.54C213.488 9.7 213.635 8.944 213.929 8.272C214.237 7.6 214.664 7.026 215.21 6.55C215.756 6.074 216.407 5.71 217.163 5.458C217.919 5.206 218.759 5.08 219.683 5.08H219.998V1.3H222.938V5.08H223.253C224.177 5.08 225.017 5.206 225.773 5.458C226.529 5.71 227.18 6.074 227.726 6.55C228.272 7.026 228.692 7.6 228.986 8.272C229.294 8.944 229.448 9.7 229.448 10.54C229.448 11.38 229.294 12.136 228.986 12.808C228.692 13.48 228.272 14.054 227.726 14.53C227.18 15.006 226.529 15.37 225.773 15.622C225.017 15.874 224.177 16 223.253 16H222.938V19.78H219.998ZM219.998 14.53V6.55H219.683C219.263 6.55 218.864 6.627 218.486 6.781C218.122 6.921 217.8 7.152 217.52 7.474C217.254 7.796 217.037 8.209 216.869 8.713C216.715 9.217 216.638 9.826 216.638 10.54C216.638 11.254 216.715 11.863 216.869 12.367C217.037 12.871 217.254 13.284 217.52 13.606C217.8 13.928 218.122 14.166 218.486 14.32C218.864 14.46 219.263 14.53 219.683 14.53H219.998ZM222.938 6.55V14.53H223.253C223.673 14.53 224.065 14.46 224.429 14.32C224.807 14.166 225.129 13.928 225.395 13.606C225.675 13.284 225.892 12.871 226.046 12.367C226.214 11.863 226.298 11.254 226.298 10.54C226.298 9.826 226.214 9.217 226.046 8.713C225.892 8.209 225.675 7.796 225.395 7.474C225.129 7.152 224.807 6.921 224.429 6.781C224.065 6.627 223.673 6.55 223.253 6.55H222.938Z" fill="black"/>
<path d="M155.092 8.545C155.624 8.181 156.086 7.74 156.478 7.222C156.884 6.69 157.087 6.081 157.087 5.395C157.087 4.499 156.8 3.785 156.226 3.253C155.652 2.721 154.784 2.455 153.622 2.455C152.572 2.455 151.613 2.602 150.745 2.896C149.891 3.176 149.065 3.659 148.267 4.345L147.322 3.085C148.12 2.399 149.058 1.86 150.136 1.468C151.228 1.076 152.46 0.879999 153.832 0.879999C154.938 0.879999 155.897 0.984999 156.709 1.195C157.521 1.405 158.193 1.706 158.725 2.098C159.271 2.476 159.677 2.931 159.943 3.463C160.209 3.981 160.342 4.555 160.342 5.185C160.342 5.815 160.251 6.382 160.069 6.886C159.887 7.376 159.642 7.824 159.334 8.23C159.04 8.636 158.697 9.007 158.305 9.343C157.913 9.679 157.507 10.008 157.087 10.33L151.732 14.425H160.552V16H147.532V14.32L155.092 8.545ZM169.591 8.545C170.123 8.181 170.585 7.74 170.977 7.222C171.383 6.69 171.586 6.081 171.586 5.395C171.586 4.499 171.299 3.785 170.725 3.253C170.151 2.721 169.283 2.455 168.121 2.455C167.071 2.455 166.112 2.602 165.244 2.896C164.39 3.176 163.564 3.659 162.766 4.345L161.821 3.085C162.619 2.399 163.557 1.86 164.635 1.468C165.727 1.076 166.959 0.879999 168.331 0.879999C169.437 0.879999 170.396 0.984999 171.208 1.195C172.02 1.405 172.692 1.706 173.224 2.098C173.77 2.476 174.176 2.931 174.442 3.463C174.708 3.981 174.841 4.555 174.841 5.185C174.841 5.815 174.75 6.382 174.568 6.886C174.386 7.376 174.141 7.824 173.833 8.23C173.539 8.636 173.196 9.007 172.804 9.343C172.412 9.679 172.006 10.008 171.586 10.33L166.231 14.425H175.051V16H162.031V14.32L169.591 8.545ZM184.3 2.35C183.754 2.35 183.222 2.469 182.704 2.707C182.186 2.931 181.724 3.295 181.318 3.799C180.926 4.303 180.604 4.954 180.352 5.752C180.114 6.55 179.995 7.516 179.995 8.65C179.995 9.784 180.114 10.75 180.352 11.548C180.604 12.346 180.926 12.997 181.318 13.501C181.724 14.005 182.186 14.376 182.704 14.614C183.222 14.838 183.754 14.95 184.3 14.95C184.846 14.95 185.378 14.838 185.896 14.614C186.414 14.376 186.869 14.005 187.261 13.501C187.667 12.997 187.989 12.346 188.227 11.548C188.479 10.75 188.605 9.784 188.605 8.65C188.605 7.516 188.479 6.55 188.227 5.752C187.989 4.954 187.667 4.303 187.261 3.799C186.869 3.295 186.414 2.931 185.896 2.707C185.378 2.469 184.846 2.35 184.3 2.35ZM184.3 0.879999C185.406 0.879999 186.421 1.041 187.345 1.363C188.269 1.671 189.067 2.147 189.739 2.791C190.411 3.435 190.929 4.247 191.293 5.227C191.671 6.193 191.86 7.334 191.86 8.65C191.86 9.966 191.671 11.114 191.293 12.094C190.929 13.06 190.411 13.865 189.739 14.509C189.067 15.153 188.269 15.636 187.345 15.958C186.421 16.266 185.406 16.42 184.3 16.42C183.194 16.42 182.179 16.266 181.255 15.958C180.331 15.636 179.533 15.153 178.861 14.509C178.189 13.865 177.664 13.06 177.286 12.094C176.922 11.114 176.74 9.966 176.74 8.65C176.74 7.334 176.922 6.193 177.286 5.227C177.664 4.247 178.189 3.435 178.861 2.791C179.533 2.147 180.331 1.671 181.255 1.363C182.179 1.041 183.194 0.879999 184.3 0.879999Z" fill="#F11717"/>
</svg>
