<svg width="88" height="55" viewBox="0 0 88 55" fill="none" xmlns="http://www.w3.org/2000/svg">
<path d="M86.1667 14.6667H80.6667V9.16667C80.6667 8.68044 80.4735 8.21412 80.1297 7.87031C79.7859 7.52649 79.3196 7.33333 78.8333 7.33333H73.3333V1.83333C73.3333 1.3471 73.1402 0.880788 72.7964 0.536971C72.4525 0.193154 71.9862 0 71.5 0H1.83333C1.3471 0 0.880788 0.193154 0.536971 0.536971C0.193154 0.880788 0 1.3471 0 1.83333V38.17C0 38.6562 0.193154 39.1226 0.536971 39.4664C0.880788 39.8102 1.3471 40.0033 1.83333 40.0033H7.33333V45.5033C7.33333 45.9896 7.52649 46.4559 7.8703 46.7997C8.21412 47.1435 8.68044 47.3367 9.16667 47.3367H14.6667V52.8367C14.6667 53.3229 14.8598 53.7892 15.2036 54.133C15.5475 54.4768 16.0138 54.67 16.5 54.67H86.1667C86.6529 54.67 87.1192 54.4768 87.463 54.133C87.8069 53.7892 88 53.3229 88 52.8367V16.5C88 16.0138 87.8069 15.5475 87.463 15.2036C87.1192 14.8598 86.6529 14.6667 86.1667 14.6667ZM57.9333 36.3367H15.4C14.9948 33.3676 13.6283 30.6129 11.5094 28.494C9.39044 26.375 6.63577 25.0085 3.66667 24.6033V15.4C6.63577 14.9948 9.39044 13.6283 11.5094 11.5094C13.6283 9.39044 14.9948 6.63577 15.4 3.66667H57.9333C58.3385 6.63577 59.705 9.39044 61.824 11.5094C63.9429 13.6283 66.6976 14.9948 69.6667 15.4V24.6033C66.6976 25.0085 63.9429 26.375 61.824 28.494C59.705 30.6129 58.3385 33.3676 57.9333 36.3367ZM69.6667 28.27V36.3367H61.5633C61.9434 34.3319 62.9205 32.4888 64.3666 31.0493C65.8127 29.6097 67.6602 28.6409 69.6667 28.27ZM69.6667 3.66667V11.77C67.6552 11.3967 65.8041 10.4225 64.3575 8.97585C62.9109 7.52923 61.9367 5.67814 61.5633 3.66667H69.6667ZM3.66667 3.66667H11.77C11.3967 5.67814 10.4225 7.52923 8.97585 8.97585C7.52923 10.4225 5.67814 11.3967 3.66667 11.77V3.66667ZM3.66667 28.27C5.67314 28.6409 7.52063 29.6097 8.96673 31.0493C10.4128 32.4888 11.39 34.3319 11.77 36.3367H3.66667V28.27ZM11 40.04H71.5C71.9862 40.04 72.4525 39.8468 72.7964 39.503C73.1402 39.1592 73.3333 38.6929 73.3333 38.2067V11H77V43.67H11V40.04ZM84.3333 51.04H18.3333V47.3733H78.8333C79.3196 47.3733 79.7859 47.1802 80.1297 46.8364C80.4735 46.4926 80.6667 46.0262 80.6667 45.54V18.3333H84.3333V51.04Z" fill="black"/>
<path d="M36.6667 7.55333C34.2082 7.55333 31.805 8.28234 29.7609 9.64817C27.7168 11.014 26.1236 12.9553 25.1828 15.2266C24.242 17.4979 23.9959 19.9971 24.4755 22.4083C24.9551 24.8195 26.139 27.0343 27.8773 28.7727C29.6157 30.511 31.8305 31.6949 34.2417 32.1745C36.6529 32.6541 39.1521 32.408 41.4234 31.4672C43.6947 30.5264 45.636 28.9332 47.0018 26.8891C48.3677 24.845 49.0967 22.4418 49.0967 19.9833C49.087 16.6897 47.7743 13.5337 45.4453 11.2047C43.1163 8.8757 39.9603 7.56301 36.6667 7.55333ZM36.6667 28.7467C34.9334 28.7467 33.2391 28.2327 31.798 27.2698C30.3569 26.3069 29.2337 24.9382 28.5704 23.3369C27.9071 21.7356 27.7336 19.9736 28.0717 18.2737C28.4099 16.5738 29.2445 15.0123 30.4701 13.7867C31.6956 12.5611 33.2571 11.7265 34.957 11.3884C36.6569 11.0503 38.419 11.2238 40.0203 11.8871C41.6215 12.5503 42.9902 13.6736 43.9531 15.1147C44.916 16.5558 45.43 18.2501 45.43 19.9833C45.4348 21.1372 45.2117 22.2807 44.7735 23.3482C44.3352 24.4156 43.6905 25.386 42.8763 26.2037C42.062 27.0213 41.0944 27.6701 40.0287 28.1128C38.9631 28.5555 37.8206 28.7833 36.6667 28.7833V28.7467Z" fill="black"/>
</svg>
