<svg width="60" height="59" viewBox="0 0 60 59" fill="none" xmlns="http://www.w3.org/2000/svg">
<path d="M53.5884 0.000214657C53.5884 0.000214657 48.6324 -0.089324 45.1542 3.38901L34.8092 13.7344C33.1572 15.3864 32.2968 17.0805 31.8651 18.3759C31.6647 18.9769 31.7179 19.0418 31.6572 19.4497C31.2493 19.5104 31.1845 19.4572 30.5835 19.6575C29.2881 20.0893 27.5941 20.9497 25.9421 22.6018L22.9864 25.5576C22.7093 25.8348 22.5537 26.2106 22.5537 26.6025C22.5537 26.9944 22.7093 27.3703 22.9864 27.6475L24.597 29.2581L9.27581 44.5856L5.07894 46.5427C4.81562 46.6666 4.59472 46.8654 4.44392 47.1142L0.893604 52.9335C0.731505 53.1144 0.616504 53.3326 0.558778 53.5685C0.558774 53.5705 0.558774 53.5724 0.558778 53.5743C0.549967 53.6068 0.542265 53.6395 0.535686 53.6725C0.465888 53.9843 0.499043 54.3104 0.630181 54.6018C0.76132 54.8933 0.983377 55.1343 1.26307 55.2889L4.20146 58.2216C4.35107 58.5 4.58597 58.7231 4.8717 58.8582C5.15742 58.9933 5.47892 59.0332 5.789 58.9721C6.07437 58.9303 6.34126 58.8059 6.55679 58.6142L12.3874 55.058C12.6363 54.9072 12.8351 54.6863 12.9589 54.423L14.9159 50.2259L30.2371 34.8984L31.8535 36.5149C32.1307 36.7919 32.5065 36.9476 32.8984 36.9476C33.2903 36.9476 33.6661 36.7919 33.9433 36.5149L36.899 33.5591C38.551 31.907 39.4114 30.2129 39.8432 28.9175C40.0435 28.3165 39.9903 28.2517 40.051 27.8437C40.4589 27.783 40.5237 27.8363 41.1247 27.6359C42.4201 27.2041 44.1141 26.3437 45.7661 24.6916L56.1111 14.3463C59.5893 10.868 59.4998 5.91184 59.4998 5.91184C59.4997 5.5199 59.344 5.14404 59.0668 4.86691L54.6333 0.433195C54.3561 0.156034 53.9803 0.000289808 53.5884 0.000214657ZM53.0573 3.03685L56.4633 6.44296C56.4171 7.18905 56.1683 10.1094 54.0213 12.2564L43.6763 22.6018C42.3727 23.9055 41.111 24.523 40.1895 24.8302C39.2681 25.1374 38.8098 25.1246 38.8098 25.1246C38.4179 25.1247 38.042 25.2804 37.7649 25.5575C37.4877 25.8347 37.332 26.2106 37.332 26.6025C37.332 26.6025 37.3447 27.0608 37.0375 27.9823C36.7304 28.9038 36.1129 30.1655 34.8092 31.4692L32.8984 33.3801L26.121 26.6025L28.0319 24.6916C29.3356 23.3879 30.5972 22.7704 31.5187 22.4632C32.4401 22.1561 32.8984 22.1688 32.8984 22.1688C33.2903 22.1688 33.6662 22.013 33.9434 21.7359C34.2205 21.4587 34.3762 21.0829 34.3763 20.6909C34.3763 20.6909 34.3635 20.2326 34.6707 19.3111C34.9778 18.3897 35.5953 17.1279 36.899 15.8242L47.244 5.47886C49.391 3.33178 52.3112 3.08298 53.0573 3.03685ZM26.6868 31.348L28.1473 32.8086L12.6414 48.315C12.5194 48.4372 12.4197 48.5799 12.347 48.7365L10.465 52.7661L5.78323 55.6238L3.87818 53.7186L6.73575 49.0367L10.7652 47.1547C10.9198 47.0813 11.0604 46.9817 11.1809 46.8602L26.6868 31.348Z" fill="black"/>
</svg>
